<svg xmlns="http://www.w3.org/2000/svg" width="27" height="27" viewBox="0 0 27 27" fill="none"><metadata><rdf:RDF xmlns:rdf="http://www.w3.org/1999/02/22-rdf-syntax-ns#" xmlns:dc="http://purl.org/dc/elements/1.1/"><rdf:Description><dc:creator>RealFaviconGenerator</dc:creator><dc:source>https://realfavicongenerator.net</dc:source></rdf:Description></rdf:RDF></metadata><circle cx="13.5" cy="13.5" r="13.5" fill="#26311A"></circle><path d="M8.83398 19.666H17.1673" stroke="#A1C852" stroke-width="1.66667" stroke-linecap="round" stroke-linejoin="round"></path><path d="M11.334 19.6673C15.9173 17.584 12.0007 14.334 13.834 11.334" stroke="#A1C852" stroke-width="1.66667" stroke-linecap="round" stroke-linejoin="round"></path><path d="M10.9173 10.8335C11.834 11.5002 12.4173 12.6668 12.834 13.9168C11.1673 14.2502 9.91732 14.2502 8.83398 13.6668C7.83398 13.1668 6.91732 12.0835 6.33398 10.1668C8.66732 9.75016 10.0007 10.1668 10.9173 10.8335Z" stroke="#A1C852" stroke-width="1.66667" stroke-linecap="round" stroke-linejoin="round"></path><path d="M14.7498 8.00065C14.1145 8.99362 13.7949 10.1558 13.8332 11.334C15.4165 11.2507 16.5832 10.834 17.4165 10.1673C18.2498 9.33398 18.7498 8.25065 18.8332 6.33398C16.5832 6.41732 15.4998 7.16732 14.7498 8.00065Z" stroke="#A1C852" stroke-width="1.66667" stroke-linecap="round" stroke-linejoin="round"></path></svg>